<?xml version='1.0' encoding='utf-8'?>
<svg width="1400" height="1000" xmlns="http://www.w3.org/2000/svg" viewBox="0 0 1400 1000"><style>
        .root-node { fill: #28a745; stroke: #1e7e34; stroke-width: 3px; }
        .main-schema { fill: #007bff; stroke: #0056b3; stroke-width: 2px; }
        .keyword-schema { fill: #6f42c1; stroke: #5a32a3; stroke-width: 2px; }
        .property { fill: #fd7e14; stroke: #e8590c; stroke-width: 1px; }
        .link { stroke: #6c757d; stroke-width: 2px; fill: none; }
        .text { font-family: Arial, sans-serif; text-anchor: middle; dominant-baseline: central; fill: white; font-weight: bold; }
        .text-small { font-size: 10px; }
        .text-medium { font-size: 12px; }
        .text-large { font-size: 14px; }
        .background { fill: linear-gradient(135deg, #f8f9fa 0%, #e9ecef 100%); }
    </style><rect width="1400" height="1000" fill="#f8f9fa" /><circle cx="700" cy="500" r="50" class="root-node" /><text x="700" y="500" class="text text-large">WFI Spectroscopy</text><line x1="700" y1="500" x2="900.0" y2="500.0" class="link" /><circle cx="900.0" cy="500.0" r="35" class="main-schema" /><text x="900.0" y="500.0" class="text text-medium">Catalog</text><line x1="900.0" y1="500.0" x2="1017.607989340949" y2="476.15968030459265" class="link" stroke-width="1" /><circle cx="1017.607989340949" cy="476.15968030459265" r="25" class="keyword-schema" /><text x="1017.607989340949" y="476.15968030459265" class="text text-small">Observation</text><line x1="900.0" y1="500.0" x2="1020.0" y2="500.0" class="link" stroke-width="1" /><circle cx="1020.0" cy="500.0" r="25" class="keyword-schema" /><text x="1020.0" y="500.0" class="text text-small">Instrument</text><line x1="900.0" y1="500.0" x2="1017.607989340949" y2="523.8403196954073" class="link" stroke-width="1" /><circle cx="1017.607989340949" cy="523.8403196954073" r="25" class="keyword-schema" /><text x="1017.607989340949" y="523.8403196954073" class="text text-small">Catalog</text><line x1="700" y1="500" x2="800.0" y2="673.2050807568877" class="link" /><circle cx="800.0" cy="673.2050807568877" r="35" class="main-schema" /><text x="800.0" y="673.2050807568877" class="text text-medium">Combined 1D</text><line x1="800.0" y1="673.2050807568877" x2="883.8457189479907" y2="759.0531757508627" class="link" stroke-width="1" /><circle cx="883.8457189479907" cy="759.0531757508627" r="25" class="keyword-schema" /><text x="883.8457189479907" y="759.0531757508627" class="text text-small">Observation</text><line x1="800.0" y1="673.2050807568877" x2="874.8563309581115" y2="766.9948974508641" class="link" stroke-width="1" /><circle cx="874.8563309581115" cy="766.9948974508641" r="25" class="keyword-schema" /><text x="874.8563309581115" y="766.9948974508641" class="text text-small">Instrument</text><line x1="800.0" y1="673.2050807568877" x2="865.119003253512" y2="773.9995023052506" class="link" stroke-width="1" /><circle cx="865.119003253512" cy="773.9995023052506" r="25" class="keyword-schema" /><text x="865.119003253512" y="773.9995023052506" class="text text-small">Calibration</text><line x1="800.0" y1="673.2050807568877" x2="854.731027993884" y2="779.997002617732" class="link" stroke-width="1" /><circle cx="854.731027993884" cy="779.997002617732" r="25" class="keyword-schema" /><text x="854.731027993884" y="779.997002617732" class="text text-small">Wavelength</text><line x1="800.0" y1="673.2050807568877" x2="843.7961983942137" y2="784.9274733476959" class="link" stroke-width="1" /><circle cx="843.7961983942137" cy="784.9274733476959" r="25" class="keyword-schema" /><text x="843.7961983942137" y="784.9274733476959" class="text text-small">Pointing</text><line x1="800.0" y1="673.2050807568877" x2="832.4237716572867" y2="788.7416508614053" class="link" stroke-width="1" /><circle cx="832.4237716572867" cy="788.7416508614053" r="25" class="keyword-schema" /><text x="832.4237716572867" y="788.7416508614053" class="text text-small">G2Dp Common</text><line x1="700" y1="500" x2="600.0" y2="673.2050807568878" class="link" /><circle cx="600.0" cy="673.2050807568878" r="35" class="main-schema" /><text x="600.0" y="673.2050807568878" class="text text-medium">Individual 1D</text><line x1="600.0" y1="673.2050807568878" x2="567.5762283427134" y2="788.7416508614056" class="link" stroke-width="1" /><circle cx="567.5762283427134" cy="788.7416508614056" r="25" class="keyword-schema" /><text x="567.5762283427134" y="788.7416508614056" class="text text-small">Observation</text><line x1="600.0" y1="673.2050807568878" x2="556.2038016057865" y2="784.927473347696" class="link" stroke-width="1" /><circle cx="556.2038016057865" cy="784.927473347696" r="25" class="keyword-schema" /><text x="556.2038016057865" y="784.927473347696" class="text text-small">Instrument</text><line x1="600.0" y1="673.2050807568878" x2="545.268972006116" y2="779.9970026177322" class="link" stroke-width="1" /><circle cx="545.268972006116" cy="779.9970026177322" r="25" class="keyword-schema" /><text x="545.268972006116" y="779.9970026177322" class="text text-small">Calibration</text><line x1="600.0" y1="673.2050807568878" x2="534.8809967464881" y2="773.9995023052508" class="link" stroke-width="1" /><circle cx="534.8809967464881" cy="773.9995023052508" r="25" class="keyword-schema" /><text x="534.8809967464881" y="773.9995023052508" class="text text-small">Wavelength</text><line x1="600.0" y1="673.2050807568878" x2="525.1436690418885" y2="766.9948974508642" class="link" stroke-width="1" /><circle cx="525.1436690418885" cy="766.9948974508642" r="25" class="keyword-schema" /><text x="525.1436690418885" y="766.9948974508642" class="text text-small">Pointing</text><line x1="600.0" y1="673.2050807568878" x2="516.1542810520093" y2="759.0531757508628" class="link" stroke-width="1" /><circle cx="516.1542810520093" cy="759.0531757508628" r="25" class="keyword-schema" /><text x="516.1542810520093" y="759.0531757508628" class="text text-small">G2Dp Common</text><line x1="700" y1="500" x2="500.0" y2="500.0" class="link" /><circle cx="500.0" cy="500.0" r="35" class="main-schema" /><text x="500.0" y="500.0" class="text text-medium">Decontaminated 2D</text><line x1="500.0" y1="500.0" x2="383.7305093947226" y2="529.6884751105428" class="link" stroke-width="1" /><circle cx="383.7305093947226" cy="529.6884751105428" r="25" class="keyword-schema" /><text x="383.7305093947226" y="529.6884751105428" class="text text-small">Observation</text><line x1="500.0" y1="500.0" x2="381.3474706476749" y2="517.932575896832" class="link" stroke-width="1" /><circle cx="381.3474706476749" cy="517.932575896832" r="25" class="keyword-schema" /><text x="381.3474706476749" y="517.932575896832" class="text text-small">Instrument</text><line x1="500.0" y1="500.0" x2="380.1499687526041" y2="505.9975003124814" class="link" stroke-width="1" /><circle cx="380.1499687526041" cy="505.9975003124814" r="25" class="keyword-schema" /><text x="380.1499687526041" y="505.9975003124814" class="text text-small">Calibration</text><line x1="500.0" y1="500.0" x2="380.1499687526041" y2="494.00249968751865" class="link" stroke-width="1" /><circle cx="380.1499687526041" cy="494.00249968751865" r="25" class="keyword-schema" /><text x="380.1499687526041" y="494.00249968751865" class="text text-small">Wavelength</text><line x1="500.0" y1="500.0" x2="381.3474706476749" y2="482.0674241031681" class="link" stroke-width="1" /><circle cx="381.3474706476749" cy="482.0674241031681" r="25" class="keyword-schema" /><text x="381.3474706476749" y="482.0674241031681" class="text text-small">Pointing</text><line x1="500.0" y1="500.0" x2="383.7305093947226" y2="470.31152488945725" class="link" stroke-width="1" /><circle cx="383.7305093947226" cy="470.31152488945725" r="25" class="keyword-schema" /><text x="383.7305093947226" y="470.31152488945725" class="text text-small">G2Dp Common</text><line x1="700" y1="500" x2="599.9999999999999" y2="326.7949192431123" class="link" /><circle cx="599.9999999999999" cy="326.7949192431123" r="35" class="main-schema" /><text x="599.9999999999999" y="326.7949192431123" class="text text-medium">Data Quality</text><line x1="599.9999999999999" y1="326.7949192431123" x2="520.54968283896" y2="236.86357263354472" class="link" stroke-width="1" /><circle cx="520.54968283896" cy="236.86357263354472" r="25" class="keyword-schema" /><text x="520.54968283896" y="236.86357263354472" class="text text-small">Observation</text><line x1="599.9999999999999" y1="326.7949192431123" x2="539.9999999999998" y2="222.8718707889797" class="link" stroke-width="1" /><circle cx="539.9999999999998" cy="222.8718707889797" r="25" class="keyword-schema" /><text x="539.9999999999998" y="222.8718707889797" class="text text-small">Instrument</text><line x1="599.9999999999999" y1="326.7949192431123" x2="561.8423278200906" y2="213.02325293813732" class="link" stroke-width="1" /><circle cx="561.8423278200906" cy="213.02325293813732" r="25" class="keyword-schema" /><text x="561.8423278200906" y="213.02325293813732" class="text text-small">Catalog</text><line x1="700" y1="500" x2="800.0" y2="326.7949192431123" class="link" /><circle cx="800.0" cy="326.7949192431123" r="35" class="main-schema" /><text x="800.0" y="326.7949192431123" class="text text-medium">Location Table</text><line x1="800.0" y1="326.7949192431123" x2="838.1576721799092" y2="213.02325293813732" class="link" stroke-width="1" /><circle cx="838.1576721799092" cy="213.02325293813732" r="25" class="keyword-schema" /><text x="838.1576721799092" y="213.02325293813732" class="text text-small">Observation</text><line x1="800.0" y1="326.7949192431123" x2="860.0" y2="222.87187078897966" class="link" stroke-width="1" /><circle cx="860.0" cy="222.87187078897966" r="25" class="keyword-schema" /><text x="860.0" y="222.87187078897966" class="text text-small">Instrument</text><line x1="800.0" y1="326.7949192431123" x2="879.4503171610397" y2="236.86357263354466" class="link" stroke-width="1" /><circle cx="879.4503171610397" cy="236.86357263354466" r="25" class="keyword-schema" /><text x="879.4503171610397" y="236.86357263354466" class="text text-small">Location Table</text><rect x="40" y="780" width="200" height="130" fill="rgba(255,255,255,0.9)" stroke="#ccc" rx="5" /><text x="140" y="800" class="text text-medium" fill="#333">Legend</text><circle cx="65" cy="825" r="15" class="root-node" /><text x="90" y="825" class="text text-small" fill="#333" text-anchor="start">Root Schema</text><circle cx="65" cy="850" r="12" class="main-schema" /><text x="90" y="850" class="text text-small" fill="#333" text-anchor="start">Main Schemas</text><circle cx="65" cy="875" r="10" class="keyword-schema" /><text x="90" y="875" class="text text-small" fill="#333" text-anchor="start">Keyword Schemas</text><circle cx="65" cy="900" r="8" class="property" /><text x="90" y="900" class="text text-small" fill="#333" text-anchor="start">Properties</text><text x="700" y="30" class="text text-large" fill="#333" font-size="20px">Roman WFI Spectroscopy ASDF Schema Structure</text></svg>